<mxfile host="app.diagrams.net" modified="2020-09-09T09:01:50.608Z" agent="5.0 (Windows NT 10.0; Win64; x64) AppleWebKit/537.36 (KHTML, like Gecko) Chrome/85.0.4183.83 Safari/537.36" etag="sfNqWURbSxdbsH7wKChT" version="13.6.6" type="github">
  <diagram name="Page-1" id="03018318-947c-dd8e-b7a3-06fadd420f32">
    <mxGraphModel dx="1422" dy="794" grid="1" gridSize="10" guides="1" tooltips="1" connect="1" arrows="1" fold="1" page="1" pageScale="1" pageWidth="1100" pageHeight="850" background="#ffffff" math="0" shadow="0">
      <root>
        <mxCell id="0" />
        <mxCell id="1" parent="0" />
        <mxCell id="677b7b8949515195-1" value="" style="whiteSpace=wrap;html=1;rounded=0;shadow=0;labelBackgroundColor=none;strokeColor=#000000;strokeWidth=1;fillColor=none;fontFamily=Verdana;fontSize=12;fontColor=#000000;align=center;comic=1;" parent="1" vertex="1">
          <mxGeometry x="20" y="20" width="1570" height="810" as="geometry" />
        </mxCell>
        <mxCell id="677b7b8949515195-9" value="" style="line;strokeWidth=1;html=1;rounded=0;shadow=0;labelBackgroundColor=none;fillColor=none;fontFamily=Verdana;fontSize=14;fontColor=#000000;align=center;comic=1;" parent="1" vertex="1">
          <mxGeometry x="20" y="40" width="1560" height="10" as="geometry" />
        </mxCell>
        <mxCell id="hBftXiECVTvNwgOMRsUj-1" value="Ходатайства, поступившие от Субъектов РФ" style="text;html=1;resizable=0;autosize=1;align=center;verticalAlign=middle;points=[];fillColor=none;strokeColor=none;rounded=0;" vertex="1" parent="1">
          <mxGeometry x="420" y="20" width="260" height="20" as="geometry" />
        </mxCell>
        <mxCell id="hBftXiECVTvNwgOMRsUj-2" value="" style="html=1;shadow=0;dashed=0;shape=mxgraph.bootstrap.rrect;rSize=5;strokeColor=#DFDFDF;html=1;whiteSpace=wrap;fillColor=#FFFFFF;fontColor=#000000;" vertex="1" parent="1">
          <mxGeometry x="40" y="120" width="200" height="120" as="geometry" />
        </mxCell>
        <mxCell id="hBftXiECVTvNwgOMRsUj-3" value="Субъект РФ" style="html=1;shadow=0;dashed=0;shape=mxgraph.bootstrap.topButton;strokeColor=inherit;fillColor=#F7F7F7;rSize=5;perimeter=none;whiteSpace=wrap;resizeWidth=1;align=left;spacing=10;" vertex="1" parent="hBftXiECVTvNwgOMRsUj-2">
          <mxGeometry width="200" height="30" relative="1" as="geometry" />
        </mxCell>
        <mxCell id="hBftXiECVTvNwgOMRsUj-4" value="Рязанская область" style="strokeColor=#d6b656;fillColor=#fff2cc;html=1;shadow=0;dashed=0;perimeter=none;whiteSpace=wrap;resizeWidth=1;align=left;spacing=10;" vertex="1" parent="hBftXiECVTvNwgOMRsUj-2">
          <mxGeometry width="200" height="30" relative="1" as="geometry">
            <mxPoint y="30" as="offset" />
          </mxGeometry>
        </mxCell>
        <mxCell id="hBftXiECVTvNwgOMRsUj-5" value="Дагестан республика" style="strokeColor=#82b366;fillColor=#d5e8d4;html=1;shadow=0;dashed=0;perimeter=none;whiteSpace=wrap;resizeWidth=1;align=left;spacing=10;" vertex="1" parent="hBftXiECVTvNwgOMRsUj-2">
          <mxGeometry width="200" height="30" relative="1" as="geometry">
            <mxPoint y="60" as="offset" />
          </mxGeometry>
        </mxCell>
        <mxCell id="hBftXiECVTvNwgOMRsUj-6" value="Воронежская область" style="strokeColor=#d6b656;fillColor=#fff2cc;html=1;shadow=0;dashed=0;shape=mxgraph.bootstrap.bottomButton;rSize=5;perimeter=none;whiteSpace=wrap;resizeWidth=1;resizeHeight=0;align=left;spacing=10;" vertex="1" parent="hBftXiECVTvNwgOMRsUj-2">
          <mxGeometry y="1" width="200" height="30" relative="1" as="geometry">
            <mxPoint y="-30" as="offset" />
          </mxGeometry>
        </mxCell>
        <mxCell id="hBftXiECVTvNwgOMRsUj-7" value="" style="html=1;shadow=0;dashed=0;shape=mxgraph.bootstrap.rrect;rSize=5;strokeColor=#DFDFDF;html=1;whiteSpace=wrap;fillColor=#FFFFFF;fontColor=#000000;" vertex="1" parent="1">
          <mxGeometry x="240" y="120" width="200" height="120" as="geometry" />
        </mxCell>
        <mxCell id="hBftXiECVTvNwgOMRsUj-8" value="Застройщик" style="html=1;shadow=0;dashed=0;shape=mxgraph.bootstrap.topButton;strokeColor=inherit;fillColor=#F7F7F7;rSize=5;perimeter=none;whiteSpace=wrap;resizeWidth=1;align=left;spacing=10;" vertex="1" parent="hBftXiECVTvNwgOMRsUj-7">
          <mxGeometry width="200" height="30" relative="1" as="geometry" />
        </mxCell>
        <mxCell id="hBftXiECVTvNwgOMRsUj-9" value="ООО &quot;РязаньСтройКорпорейшен&quot;" style="strokeColor=#d6b656;fillColor=#fff2cc;html=1;shadow=0;dashed=0;perimeter=none;whiteSpace=wrap;resizeWidth=1;align=left;spacing=10;" vertex="1" parent="hBftXiECVTvNwgOMRsUj-7">
          <mxGeometry width="200" height="30" relative="1" as="geometry">
            <mxPoint y="30" as="offset" />
          </mxGeometry>
        </mxCell>
        <mxCell id="hBftXiECVTvNwgOMRsUj-10" value="АО &quot;Дагестанский кирпичный завод&quot;" style="strokeColor=#82b366;fillColor=#d5e8d4;html=1;shadow=0;dashed=0;perimeter=none;whiteSpace=wrap;resizeWidth=1;align=left;spacing=10;" vertex="1" parent="hBftXiECVTvNwgOMRsUj-7">
          <mxGeometry width="200" height="30" relative="1" as="geometry">
            <mxPoint y="60" as="offset" />
          </mxGeometry>
        </mxCell>
        <mxCell id="hBftXiECVTvNwgOMRsUj-11" value="ДСК" style="strokeColor=#d6b656;fillColor=#fff2cc;html=1;shadow=0;dashed=0;shape=mxgraph.bootstrap.bottomButton;rSize=5;perimeter=none;whiteSpace=wrap;resizeWidth=1;resizeHeight=0;align=left;spacing=10;" vertex="1" parent="hBftXiECVTvNwgOMRsUj-7">
          <mxGeometry y="1" width="200" height="30" relative="1" as="geometry">
            <mxPoint y="-30" as="offset" />
          </mxGeometry>
        </mxCell>
        <mxCell id="hBftXiECVTvNwgOMRsUj-12" value="" style="html=1;shadow=0;dashed=0;shape=mxgraph.bootstrap.rrect;rSize=5;strokeColor=#DFDFDF;html=1;whiteSpace=wrap;fillColor=#FFFFFF;fontColor=#000000;" vertex="1" parent="1">
          <mxGeometry x="440" y="120" width="200" height="120" as="geometry" />
        </mxCell>
        <mxCell id="hBftXiECVTvNwgOMRsUj-13" value="Номер Ходатайства" style="html=1;shadow=0;dashed=0;shape=mxgraph.bootstrap.topButton;strokeColor=inherit;fillColor=#F7F7F7;rSize=5;perimeter=none;whiteSpace=wrap;resizeWidth=1;align=left;spacing=10;" vertex="1" parent="hBftXiECVTvNwgOMRsUj-12">
          <mxGeometry width="200" height="30" relative="1" as="geometry" />
        </mxCell>
        <mxCell id="hBftXiECVTvNwgOMRsUj-14" value="14-521" style="strokeColor=#d6b656;fillColor=#fff2cc;html=1;shadow=0;dashed=0;perimeter=none;whiteSpace=wrap;resizeWidth=1;align=left;spacing=10;" vertex="1" parent="hBftXiECVTvNwgOMRsUj-12">
          <mxGeometry width="200" height="30" relative="1" as="geometry">
            <mxPoint y="30" as="offset" />
          </mxGeometry>
        </mxCell>
        <mxCell id="hBftXiECVTvNwgOMRsUj-15" value="FBI-01" style="strokeColor=#82b366;fillColor=#d5e8d4;html=1;shadow=0;dashed=0;perimeter=none;whiteSpace=wrap;resizeWidth=1;align=left;spacing=10;" vertex="1" parent="hBftXiECVTvNwgOMRsUj-12">
          <mxGeometry width="200" height="30" relative="1" as="geometry">
            <mxPoint y="60" as="offset" />
          </mxGeometry>
        </mxCell>
        <mxCell id="hBftXiECVTvNwgOMRsUj-16" value="036" style="strokeColor=#d6b656;fillColor=#fff2cc;html=1;shadow=0;dashed=0;shape=mxgraph.bootstrap.bottomButton;rSize=5;perimeter=none;whiteSpace=wrap;resizeWidth=1;resizeHeight=0;align=left;spacing=10;" vertex="1" parent="hBftXiECVTvNwgOMRsUj-12">
          <mxGeometry y="1" width="200" height="30" relative="1" as="geometry">
            <mxPoint y="-30" as="offset" />
          </mxGeometry>
        </mxCell>
        <mxCell id="hBftXiECVTvNwgOMRsUj-17" value="" style="html=1;shadow=0;dashed=0;shape=mxgraph.bootstrap.rrect;rSize=5;strokeColor=#DFDFDF;html=1;whiteSpace=wrap;fillColor=#FFFFFF;fontColor=#000000;" vertex="1" parent="1">
          <mxGeometry x="640" y="120" width="200" height="120" as="geometry" />
        </mxCell>
        <mxCell id="hBftXiECVTvNwgOMRsUj-18" value="Дата Ходатайства" style="html=1;shadow=0;dashed=0;shape=mxgraph.bootstrap.topButton;strokeColor=inherit;fillColor=#F7F7F7;rSize=5;perimeter=none;whiteSpace=wrap;resizeWidth=1;align=left;spacing=10;" vertex="1" parent="hBftXiECVTvNwgOMRsUj-17">
          <mxGeometry width="200" height="30" relative="1" as="geometry" />
        </mxCell>
        <mxCell id="hBftXiECVTvNwgOMRsUj-19" value="20.01.2020" style="strokeColor=#d6b656;fillColor=#fff2cc;html=1;shadow=0;dashed=0;perimeter=none;whiteSpace=wrap;resizeWidth=1;align=left;spacing=10;" vertex="1" parent="hBftXiECVTvNwgOMRsUj-17">
          <mxGeometry width="200" height="30" relative="1" as="geometry">
            <mxPoint y="30" as="offset" />
          </mxGeometry>
        </mxCell>
        <mxCell id="hBftXiECVTvNwgOMRsUj-20" value="01.01.2020" style="strokeColor=#82b366;fillColor=#d5e8d4;html=1;shadow=0;dashed=0;perimeter=none;whiteSpace=wrap;resizeWidth=1;align=left;spacing=10;" vertex="1" parent="hBftXiECVTvNwgOMRsUj-17">
          <mxGeometry width="200" height="30" relative="1" as="geometry">
            <mxPoint y="60" as="offset" />
          </mxGeometry>
        </mxCell>
        <mxCell id="hBftXiECVTvNwgOMRsUj-21" value="01.01.2020" style="strokeColor=#d6b656;fillColor=#fff2cc;html=1;shadow=0;dashed=0;shape=mxgraph.bootstrap.bottomButton;rSize=5;perimeter=none;whiteSpace=wrap;resizeWidth=1;resizeHeight=0;align=left;spacing=10;" vertex="1" parent="hBftXiECVTvNwgOMRsUj-17">
          <mxGeometry y="1" width="200" height="30" relative="1" as="geometry">
            <mxPoint y="-30" as="offset" />
          </mxGeometry>
        </mxCell>
        <mxCell id="hBftXiECVTvNwgOMRsUj-22" value="" style="html=1;shadow=0;dashed=0;shape=mxgraph.bootstrap.rrect;rSize=5;strokeColor=#DFDFDF;html=1;whiteSpace=wrap;fillColor=#FFFFFF;fontColor=#000000;" vertex="1" parent="1">
          <mxGeometry x="840" y="120" width="200" height="120" as="geometry" />
        </mxCell>
        <mxCell id="hBftXiECVTvNwgOMRsUj-23" value="Ходатайство" style="html=1;shadow=0;dashed=0;shape=mxgraph.bootstrap.topButton;strokeColor=inherit;fillColor=#F7F7F7;rSize=5;perimeter=none;whiteSpace=wrap;resizeWidth=1;align=left;spacing=10;" vertex="1" parent="hBftXiECVTvNwgOMRsUj-22">
          <mxGeometry width="200" height="30" relative="1" as="geometry" />
        </mxCell>
        <mxCell id="hBftXiECVTvNwgOMRsUj-24" value="Ходатайство от Рязанская область № 14-521 от 20.01.2020" style="strokeColor=#d6b656;fillColor=#fff2cc;html=1;shadow=0;dashed=0;perimeter=none;whiteSpace=wrap;resizeWidth=1;align=left;spacing=10;" vertex="1" parent="hBftXiECVTvNwgOMRsUj-22">
          <mxGeometry width="200" height="30" relative="1" as="geometry">
            <mxPoint y="30" as="offset" />
          </mxGeometry>
        </mxCell>
        <mxCell id="hBftXiECVTvNwgOMRsUj-25" value="&lt;span&gt;Ходатайство от Дагестан&amp;nbsp; № FBI-01 от 01.01.2020&lt;/span&gt;" style="strokeColor=#82b366;fillColor=#d5e8d4;html=1;shadow=0;dashed=0;perimeter=none;whiteSpace=wrap;resizeWidth=1;align=left;spacing=10;" vertex="1" parent="hBftXiECVTvNwgOMRsUj-22">
          <mxGeometry width="200" height="30" relative="1" as="geometry">
            <mxPoint y="60" as="offset" />
          </mxGeometry>
        </mxCell>
        <mxCell id="hBftXiECVTvNwgOMRsUj-26" value="&lt;span&gt;Ходатайство от Воронежская область № 036 от 01.01.2020&lt;/span&gt;" style="strokeColor=#d6b656;fillColor=#fff2cc;html=1;shadow=0;dashed=0;shape=mxgraph.bootstrap.bottomButton;rSize=5;perimeter=none;whiteSpace=wrap;resizeWidth=1;resizeHeight=0;align=left;spacing=10;" vertex="1" parent="hBftXiECVTvNwgOMRsUj-22">
          <mxGeometry y="1" width="200" height="30" relative="1" as="geometry">
            <mxPoint y="-30" as="offset" />
          </mxGeometry>
        </mxCell>
        <mxCell id="hBftXiECVTvNwgOMRsUj-27" value="Search" style="strokeWidth=1;shadow=0;dashed=0;align=center;html=1;shape=mxgraph.mockup.forms.searchBox;strokeColor=#999999;mainText=;strokeColor2=#008cff;fontColor=#666666;fontSize=17;align=left;spacingLeft=3;" vertex="1" parent="1">
          <mxGeometry x="890" y="100" width="150" height="20" as="geometry" />
        </mxCell>
        <mxCell id="hBftXiECVTvNwgOMRsUj-28" value="Фильтры" style="text;html=1;resizable=0;autosize=1;align=center;verticalAlign=middle;points=[];fillColor=none;strokeColor=none;rounded=0;fontStyle=4" vertex="1" parent="1">
          <mxGeometry x="40" y="100" width="60" height="20" as="geometry" />
        </mxCell>
        <mxCell id="hBftXiECVTvNwgOMRsUj-29" value="" style="whiteSpace=wrap;html=1;fillColor=#d5e8d4;strokeColor=#82b366;" vertex="1" parent="1">
          <mxGeometry x="40" y="70" width="50" height="10" as="geometry" />
        </mxCell>
        <mxCell id="hBftXiECVTvNwgOMRsUj-30" value="" style="whiteSpace=wrap;html=1;fillColor=#fff2cc;strokeColor=#d6b656;" vertex="1" parent="1">
          <mxGeometry x="430" y="70" width="50" height="10" as="geometry" />
        </mxCell>
        <mxCell id="hBftXiECVTvNwgOMRsUj-31" value="- Ходатайства, по которым запущен бизнес-процесс" style="text;html=1;resizable=0;autosize=1;align=center;verticalAlign=middle;points=[];fillColor=none;strokeColor=none;rounded=0;" vertex="1" parent="1">
          <mxGeometry x="90" y="65" width="310" height="20" as="geometry" />
        </mxCell>
        <mxCell id="hBftXiECVTvNwgOMRsUj-32" value="- Ходатайства, по которым не запущен бизнес-процесс&amp;nbsp;" style="text;html=1;resizable=0;autosize=1;align=center;verticalAlign=middle;points=[];fillColor=none;strokeColor=none;rounded=0;" vertex="1" parent="1">
          <mxGeometry x="480" y="65" width="330" height="20" as="geometry" />
        </mxCell>
        <mxCell id="hBftXiECVTvNwgOMRsUj-33" value="Запустить бизнес-процесс" style="strokeWidth=1;shadow=0;dashed=0;align=center;html=1;shape=mxgraph.mockup.buttons.button;strokeColor=#82b366;mainText=;buttonStyle=round;fontSize=12;fontStyle=1;whiteSpace=wrap;fontColor=#FFFFFF;fillColor=#4D9900;" vertex="1" parent="1">
          <mxGeometry x="1100" y="120" width="150" height="30" as="geometry" />
        </mxCell>
        <mxCell id="hBftXiECVTvNwgOMRsUj-34" value="" style="strokeWidth=1;shadow=0;dashed=0;align=center;html=1;shape=mxgraph.mockup.forms.rrect;rSize=0;strokeColor=#999999;fillColor=#ffffff;recursiveResize=0;fontSize=12;fontColor=#FFFFFF;" vertex="1" parent="1">
          <mxGeometry x="1110" y="180" width="300" height="120" as="geometry" />
        </mxCell>
        <mxCell id="hBftXiECVTvNwgOMRsUj-35" value="Рязанская область, Неделина 5" style="strokeWidth=1;shadow=0;dashed=0;align=center;html=1;shape=mxgraph.mockup.forms.rrect;rSize=0;fillColor=#eeeeee;strokeColor=#999999;gradientColor=#cccccc;align=left;spacingLeft=4;fontSize=17;fontColor=#666666;labelPosition=right;" vertex="1" parent="hBftXiECVTvNwgOMRsUj-34">
          <mxGeometry x="8" y="7.5" width="15" height="15" as="geometry" />
        </mxCell>
        <mxCell id="hBftXiECVTvNwgOMRsUj-36" value="Рязанская область, Неделина 4" style="strokeWidth=1;shadow=0;dashed=0;align=center;html=1;shape=mxgraph.mockup.forms.rrect;rSize=0;fillColor=#eeeeee;strokeColor=#999999;gradientColor=#cccccc;align=left;spacingLeft=4;fontSize=17;fontColor=#666666;labelPosition=right;" vertex="1" parent="hBftXiECVTvNwgOMRsUj-34">
          <mxGeometry x="8" y="37.5" width="15" height="15" as="geometry" />
        </mxCell>
        <mxCell id="hBftXiECVTvNwgOMRsUj-37" value="Рязанская область, Ленина 213" style="strokeWidth=1;shadow=0;dashed=0;align=center;html=1;shape=mxgraph.mockup.forms.checkbox;rSize=0;resizable=0;fillColor=#aaaaaa;strokeColor=#444444;gradientColor=#666666;align=left;spacingLeft=4;fontSize=17;fontColor=#008cff;labelPosition=right;" vertex="1" parent="hBftXiECVTvNwgOMRsUj-34">
          <mxGeometry x="8" y="67.5" width="15" height="15" as="geometry" />
        </mxCell>
        <mxCell id="hBftXiECVTvNwgOMRsUj-38" value="Рязанская область, Путина 18" style="strokeWidth=1;shadow=0;dashed=0;align=center;html=1;shape=mxgraph.mockup.forms.rrect;rSize=0;fillColor=#eeeeee;strokeColor=#999999;gradientColor=#cccccc;align=left;spacingLeft=4;fontSize=17;fontColor=#666666;labelPosition=right;" vertex="1" parent="hBftXiECVTvNwgOMRsUj-34">
          <mxGeometry x="8" y="97.5" width="15" height="15" as="geometry" />
        </mxCell>
        <mxCell id="hBftXiECVTvNwgOMRsUj-39" value="Далее" style="strokeWidth=1;shadow=0;dashed=0;align=center;html=1;shape=mxgraph.mockup.buttons.button;strokeColor=#82b366;mainText=;buttonStyle=round;fontSize=12;fontStyle=1;fillColor=#d5e8d4;whiteSpace=wrap;" vertex="1" parent="1">
          <mxGeometry x="1220" y="360" width="90" height="20" as="geometry" />
        </mxCell>
        <mxCell id="hBftXiECVTvNwgOMRsUj-40" value="Назад" style="strokeWidth=1;shadow=0;dashed=0;align=center;html=1;shape=mxgraph.mockup.buttons.button;strokeColor=#82b366;mainText=;buttonStyle=round;fontSize=12;fontStyle=1;fillColor=#d5e8d4;whiteSpace=wrap;" vertex="1" parent="1">
          <mxGeometry x="1110" y="360" width="90" height="20" as="geometry" />
        </mxCell>
      </root>
    </mxGraphModel>
  </diagram>
</mxfile>
